<svg width="100" height="100" viewBox="0 0 100 100" fill="none" xmlns="http://www.w3.org/2000/svg">
<circle cx="50" cy="50" r="50" fill="#A259FF"/>
<path d="M64.156 64.83C61.9825 64.83 60.0249 64.4429 58.2831 63.6688C56.5562 62.8798 55.1866 61.7186 54.1743 60.1852C53.1769 58.6519 52.6782 56.7612 52.6782 54.5133C52.6782 52.578 53.0354 50.9776 53.75 49.7122C54.4646 48.4468 55.4397 47.4345 56.6753 46.6753C57.9109 45.916 59.3029 45.3429 60.8511 44.9558C62.4142 44.5539 64.0295 44.2636 65.6968 44.0849C67.7066 43.8765 69.3367 43.6904 70.5872 43.5267C71.8377 43.348 72.7458 43.0801 73.3115 42.7228C73.8921 42.3506 74.1824 41.7775 74.1824 41.0033V40.8693C74.1824 39.1871 73.6837 37.8845 72.6863 36.9615C71.6888 36.0385 70.2522 35.577 68.3765 35.577C66.3965 35.577 64.8259 36.0087 63.6648 36.8722C62.5185 37.7356 61.7443 38.7554 61.3424 39.9315L53.7947 38.8596C54.3902 36.7754 55.3727 35.0336 56.7423 33.6343C58.1119 32.22 59.7867 31.163 61.7667 30.4633C63.7466 29.7488 65.935 29.3915 68.3318 29.3915C69.9843 29.3915 71.6293 29.585 73.2669 29.9721C74.9044 30.3591 76.4006 30.9993 77.7553 31.8925C79.11 32.7708 80.1968 33.9692 81.0155 35.4877C81.8492 37.0062 82.266 38.9043 82.266 41.182V64.1377H74.495V59.426H74.2271C73.7358 60.3788 73.0436 61.272 72.1503 62.1056C71.272 62.9244 70.1629 63.5869 68.8231 64.0931C67.4982 64.5843 65.9425 64.83 64.156 64.83ZM66.2551 58.8901C67.8778 58.8901 69.2846 58.57 70.4756 57.9298C71.6665 57.2748 72.5821 56.4114 73.2222 55.3395C73.8772 54.2676 74.2047 53.099 74.2047 51.8336V47.7918C73.9517 48.0002 73.5199 48.1937 72.9096 48.3724C72.3141 48.551 71.6442 48.7073 70.8998 48.8413C70.1555 48.9753 69.4186 49.0944 68.6891 49.1986C67.9597 49.3028 67.327 49.3921 66.791 49.4666C65.5852 49.6303 64.5059 49.8983 63.5531 50.2705C62.6003 50.6427 61.8485 51.1637 61.2977 51.8336C60.7469 52.4886 60.4715 53.3372 60.4715 54.3793C60.4715 55.868 61.0149 56.992 62.1016 57.7512C63.1884 58.5104 64.5729 58.8901 66.2551 58.8901Z" fill="white"/>
<path d="M24.0616 77C22.96 77 21.9402 76.9107 21.0024 76.732C20.0794 76.5683 19.3425 76.3748 18.7916 76.1514L20.6674 69.8542C21.8435 70.1966 22.893 70.3604 23.816 70.3455C24.739 70.3306 25.5503 70.0403 26.25 69.4746C26.9646 68.9238 27.5675 68.0008 28.0588 66.7056L28.751 64.8522L16.313 29.838H24.8879L32.7929 55.7414H33.1501L41.0775 29.838H49.6747L35.9415 68.2911C35.3013 70.1073 34.4528 71.663 33.3958 72.9582C32.3388 74.2682 31.0436 75.2657 29.5103 75.9505C27.9918 76.6502 26.1756 77 24.0616 77Z" fill="white"/>
</svg>
