<svg width="100" height="100" viewBox="0 0 100 100" fill="none" xmlns="http://www.w3.org/2000/svg">
<circle cx="50" cy="50" r="50" fill="#5286E4"/>
<path d="M64.1561 64.83C61.9826 64.83 60.0249 64.4429 58.2831 63.6688C56.5563 62.8798 55.1867 61.7186 54.1743 60.1852C53.1769 58.6519 52.6782 56.7612 52.6782 54.5133C52.6782 52.578 53.0355 50.9776 53.7501 49.7122C54.4646 48.4468 55.4397 47.4345 56.6753 46.6753C57.911 45.916 59.3029 45.3429 60.8511 44.9558C62.4143 44.5539 64.0295 44.2636 65.6969 44.0849C67.7066 43.8765 69.3367 43.6904 70.5872 43.5267C71.8377 43.348 72.7459 43.0801 73.3116 42.7228C73.8922 42.3506 74.1825 41.7775 74.1825 41.0033V40.8693C74.1825 39.1871 73.6837 37.8845 72.6863 36.9615C71.6889 36.0385 70.2523 35.577 68.3765 35.577C66.3966 35.577 64.826 36.0087 63.6648 36.8722C62.5185 37.7356 61.7444 38.7554 61.3424 39.9315L53.7947 38.8596C54.3902 36.7754 55.3727 35.0336 56.7423 33.6343C58.1119 32.22 59.7867 31.163 61.7667 30.4633C63.7467 29.7488 65.9351 29.3915 68.3319 29.3915C69.9843 29.3915 71.6293 29.585 73.2669 29.9721C74.9045 30.3591 76.4006 30.9993 77.7553 31.8925C79.1101 32.7708 80.1968 33.9692 81.0156 35.4877C81.8493 37.0062 82.2661 38.9043 82.2661 41.182V64.1377H74.4951V59.426H74.2271C73.7358 60.3788 73.0436 61.272 72.1504 62.1056C71.272 62.9244 70.163 63.5869 68.8231 64.0931C67.4982 64.5843 65.9425 64.83 64.1561 64.83ZM66.2551 58.8901C67.8778 58.8901 69.2846 58.57 70.4756 57.9298C71.6665 57.2748 72.5821 56.4114 73.2222 55.3395C73.8773 54.2676 74.2048 53.099 74.2048 51.8336V47.7918C73.9517 48.0002 73.52 48.1937 72.9096 48.3724C72.3141 48.551 71.6442 48.7073 70.8999 48.8413C70.1555 48.9753 69.4186 49.0944 68.6892 49.1986C67.9597 49.3028 67.327 49.3922 66.7911 49.4666C65.5852 49.6303 64.5059 49.8983 63.5531 50.2705C62.6004 50.6427 61.8486 51.1637 61.2978 51.8336C60.7469 52.4886 60.4715 53.3372 60.4715 54.3793C60.4715 55.868 61.0149 56.992 62.1017 57.7512C63.1884 58.5104 64.5729 58.8901 66.2551 58.8901Z" fill="white"/>
<path d="M24.0617 77C22.96 77 21.9403 76.9107 21.0024 76.732C20.0794 76.5683 19.3425 76.3748 18.7917 76.1514L20.6674 69.8542C21.8435 70.1966 22.893 70.3604 23.816 70.3455C24.739 70.3306 25.5504 70.0403 26.2501 69.4746C26.9646 68.9238 27.5676 68.0008 28.0588 66.7056L28.7511 64.8522L16.313 29.838H24.8879L32.7929 55.7414H33.1502L41.0775 29.838H49.6747L35.9415 68.2911C35.3013 70.1073 34.4528 71.663 33.3958 72.9582C32.3388 74.2682 31.0437 75.2657 29.5103 75.9505C27.9918 76.6502 26.1756 77 24.0617 77Z" fill="white"/>
</svg>
